<?xml version="1.0" encoding="UTF-8" standalone="no"?>
<!-- Created with Inkscape (http://www.inkscape.org/) -->

<svg
   version="1.1"
   id="svg1"
   width="300"
   height="320"
   viewBox="0 0 300 320"
   sodipodi:docname="apple.svg"
   inkscape:version="1.3.2 (091e20e, 2023-11-25, custom)"
   inkscape:export-filename="Manzanita export.svg"
   inkscape:export-xdpi="96"
   inkscape:export-ydpi="96"
   xmlns:inkscape="http://www.inkscape.org/namespaces/inkscape"
   xmlns:sodipodi="http://sodipodi.sourceforge.net/DTD/sodipodi-0.dtd"
   xmlns="http://www.w3.org/2000/svg"
   xmlns:svg="http://www.w3.org/2000/svg">
  <defs
     id="defs1" />
  <sodipodi:namedview
     id="namedview1"
     pagecolor="#505050"
     bordercolor="#ffffff"
     borderopacity="1"
     inkscape:showpageshadow="0"
     inkscape:pageopacity="0"
     inkscape:pagecheckerboard="1"
     inkscape:deskcolor="#505050"
     inkscape:zoom="1.5990291"
     inkscape:cx="101.62417"
     inkscape:cy="184.79964"
     inkscape:window-width="1920"
     inkscape:window-height="1057"
     inkscape:window-x="-8"
     inkscape:window-y="-8"
     inkscape:window-maximized="1"
     inkscape:current-layer="g1"
     inkscape:export-bgcolor="#ffffff00" />
  <g
     inkscape:groupmode="layer"
     inkscape:label="Manzanita"
     id="g1"
     style="display:inline"
     transform="translate(-212.00364,-182.61081)"
     sodipodi:insensitive="true">
    <path
       style="display:inline;fill:#dc0001;fill-opacity:1"
       d="m 240.12008,336.52187 c 1.08488,-14.27676 6.27113,-24.46262 12.82409,-37.14564 8.89721,-17.22022 16.52034,-21.99237 27.41702,-30.07029 11.93677,-8.84896 22.67507,-7.82879 34.49239,-9.28641 8.34008,-1.02872 25.20597,0.44221 25.20597,0.44221 l 19.89946,3.97989 c 0,0 19.68937,-4.10707 29.18586,-4.86431 10.72871,-0.85549 32.72355,0.44221 32.72355,0.44221 l 26.97481,10.17083 c 0,0 16.9968,15.54328 22.99493,25.20598 6.42431,10.34925 13.2663,34.05017 13.2663,34.05017 l 1.32663,34.9346 c 0,0 -2.41509,31.51276 -10.17083,48.2009 -6.83584,14.70877 -20.34166,38.91448 -20.34166,38.91448 l -29.18587,30.5125 c 0,0 -15.94098,8.83265 -24.76376,10.17083 -13.16801,1.99724 -39.79891,-3.53768 -39.79891,-3.53768 0,0 -22.1035,7.03098 -33.16576,5.30652 -15.17639,-2.3658 -41.12554,-20.78387 -41.12554,-20.78387 l -23.87934,-33.60797 -18.13061,-42.45217 -4.4221,-17.24619 c 0,0 -2.42169,-28.92584 -1.32663,-43.33659 z"
       id="path1"
       sodipodi:nodetypes="ssssccsccsccsccscsccccs"
       inkscape:label="Fondo rojo" />
    <path
       style="display:inline;fill:#f20a0b;fill-opacity:1"
       d="m 334.75303,474.04921 c 40.8248,-0.60401 61.7495,-5.15439 80.04003,-20.78387 34.03676,-29.08482 34.23113,-34.78747 48.2009,-58.37174 16.29735,-27.51378 7.92719,-69.29138 4.4221,-75.17571 -12.79267,-21.47627 -10.55338,-34.90788 -47.75869,-47.75869 -14.15655,-4.88971 -40.74311,4.62761 -55.71847,4.86431 -18.17562,0.28728 -35.77706,-8.39946 -53.94963,-7.95978 -11.41543,0.27619 -23.82682,0.741 -33.60797,6.63315 -12.02888,7.24618 -20.93246,19.84568 -26.5326,32.72355 -5.93563,13.64934 -6.58303,29.34208 -6.19094,44.22101 0.40742,15.46075 3.51996,31.02684 8.8442,45.54763 6.46387,17.62892 6.90373,28.37298 27.85923,50.41195 12.71076,13.36795 31.29847,25.98986 54.39184,25.64819 z"
       id="path2"
       sodipodi:nodetypes="sssssssssssss"
       inkscape:label="Medio rojo" />
    <path
       style="display:inline;fill:#ff5541;fill-opacity:1"
       d="m 271.9592,397.54686 c 0,0 -7.54264,-47.42297 -3.53768,-66.77372 2.60611,-12.59192 7.02035,-26.09797 16.36177,-34.93459 10.04186,-9.49921 38.47228,-15.47736 38.47228,-15.47736 0,0 -26.27451,-6.09116 -38.03007,-1.32663 -9.85484,3.99417 -17.35256,13.48529 -22.1105,22.99493 -6.9504,13.89167 -8.85412,30.51405 -7.51757,45.98985 1.27552,14.76914 16.36177,49.52752 16.36177,49.52752 z"
       id="path3"
       sodipodi:nodetypes="csscsssc"
       inkscape:label="Brillo" />
    <path
       style="display:inline;fill:#65370f;fill-opacity:1"
       d="m 325.35368,209.18944 c 1.11729,-3.76902 5.29655,-7.51019 9.22435,-7.34821 6.07801,0.25066 13.28932,12.50759 13.28932,12.50759 0,0 5.45856,9.46028 9.53703,17.51063 3.46348,6.83645 4.78863,6.36355 7.03552,23.13904 0.85833,6.40839 0.62538,19.5431 0.62538,19.5431 l -5.00303,0.46904 c 0,0 1.00224,-15.50762 -0.62538,-22.51366 -1.7092,-7.35714 -8.91166,-20.48118 -8.91166,-20.48118 0,0 -11.2921,-14.1653 -12.82028,-15.32179 -0.94147,-0.71249 -10.47511,-1.87614 -10.47511,-1.87614 0,0 -2.43821,-3.73235 -1.87614,-5.62842 z"
       id="path4"
       sodipodi:nodetypes="sscssccscscs"
       inkscape:label="Palito" />
    <path
       style="display:inline;fill:#aa7d50;fill-opacity:1"
       d="m 325.60161,210.78527 c -0.95388,-1.23575 2.13317,-5.30077 4.19924,-6.54832 2.05411,-1.24035 7.05118,-3.12157 8.152,-0.98943 0.5452,1.05597 -0.53424,2.1899 -1.26417,3.12772 -1.24506,1.59968 -2.42589,2.10861 -4.92486,3.6741 -0.35962,0.22528 -4.902,2.36851 -6.16221,0.73593 z"
       id="path5"
       sodipodi:nodetypes="ssssss"
       inkscape:label="Punta de palito" />
    <path
       style="display:inline;fill:#7cc715;fill-opacity:1"
       d="m 363.18914,257.03097 c 0,0 12.53025,-37.18128 26.10959,-48.15422 16.24649,-13.12815 23.99116,-17.26255 51.43748,-17.04158 9.4932,0.0764 40.33696,-1e-5 40.33696,-1e-5 0,0 -8.89647,11.1056 -27.51669,25.95325 -7.71932,6.15534 -14.92812,13.05164 -23.29539,18.29235 -9.679,6.06229 -16.90297,10.42739 -30.79994,15.00911 -5.99127,1.97527 -15.46757,5.03987 -21.73193,5.78476 -4.39909,0.52309 -14.54008,0.15634 -14.54008,0.15634 z"
       id="path7"
       sodipodi:nodetypes="csscssssc"
       inkscape:label="Verde claro" />
    <path
       style="display:inline;fill:#5c9600;fill-opacity:1"
       d="m 363.0328,257.34366 c 0,0 10.9037,-30.70268 19.69945,-41.27504 8.66013,-10.40935 17.48945,-16.99482 30.6436,-21.5756 12.1512,-4.23152 29.03971,-2.41512 41.90043,-2.8142 9.01396,-0.27972 25.48421,0.31269 25.48421,0.31269 0,0 -19.68779,6.71577 -32.0507,11.56952 -15.88034,6.23471 -31.1494,12.65674 -45.49636,21.88828 -13.70982,8.82157 -40.18063,31.89435 -40.18063,31.89435 z"
       id="path6"
       sodipodi:nodetypes="cssscssc"
       inkscape:label="Verde oscuro" />
  </g>
</svg>
