<?xml version="1.0" encoding="UTF-8" standalone="no"?>
<!-- Created with Inkscape (http://www.inkscape.org/) -->

<svg
   width="210mm"
   height="297mm"
   viewBox="0 0 210 297"
   version="1.1"
   id="svg1"
   xml:space="preserve"
   inkscape:version="1.3.2 (091e20e, 2023-11-25, custom)"
   sodipodi:docname="Lecti boton icon.svg"
   xmlns:inkscape="http://www.inkscape.org/namespaces/inkscape"
   xmlns:sodipodi="http://sodipodi.sourceforge.net/DTD/sodipodi-0.dtd"
   xmlns="http://www.w3.org/2000/svg"
   xmlns:svg="http://www.w3.org/2000/svg"><sodipodi:namedview
     id="namedview1"
     pagecolor="#505050"
     bordercolor="#eeeeee"
     borderopacity="1"
     inkscape:showpageshadow="0"
     inkscape:pageopacity="0"
     inkscape:pagecheckerboard="0"
     inkscape:deskcolor="#505050"
     inkscape:document-units="mm"
     inkscape:zoom="1.4142136"
     inkscape:cx="323.50135"
     inkscape:cy="492.49987"
     inkscape:window-width="1920"
     inkscape:window-height="1057"
     inkscape:window-x="-8"
     inkscape:window-y="-8"
     inkscape:window-maximized="1"
     inkscape:current-layer="layer1" /><defs
     id="defs1" /><g
     inkscape:label="Layer 1"
     inkscape:groupmode="layer"
     id="layer1"
     style="display:inline"><path
       style="display:inline;opacity:1;fill:#ffffff;stroke:#000000;stroke-width:4;stroke-dasharray:none;stroke-opacity:1;paint-order:fill markers stroke"
       d="m 80.542372,105.23994 c 0,0 2.366031,-4.79818 6.095883,-8.618896 1.838502,-1.883292 6.211965,-2.866393 6.211965,-2.866393 0,0 1.903977,-0.683829 3.083449,-0.107273 0.87962,0.42998 1.357245,-0.02385 1.38181,1.524762 0.02131,1.343313 -2.711883,0.968774 -2.711883,0.968774 0,0 -4.771245,0.843648 -6.775956,2.096054 -3.539561,2.211272 -1.779442,5.744492 -1.779442,5.744492 0,0 10.63464,-1.88641 16.248942,2.00685 9.28444,6.43834 10.26291,9.45485 13.1679,15.61179 2.48817,5.2735 1.79271,10.44264 0.94386,15.57363 -0.80887,4.88927 -5.18167,10.04952 -5.18167,10.04952 0,0 1.08868,0.64411 2.79738,1.28799 1.65038,0.62191 2.79188,1.45062 2.79188,1.45062 0,0 1.30613,-0.72306 2.584,-1.13274 1.5109,-0.48438 5.42133,-0.70808 5.42133,-0.70808 0,0 4.19064,0.16614 7.5961,2.03466 3.56819,1.95781 4.77489,4.30378 4.77489,4.30378 0,0 4.02342,-1.80088 10.92461,2.36081 3.57305,2.15468 4.53302,2.19936 7.39634,10.30574 1.01352,2.86938 1.13198,6.70645 -0.0922,9.84695 -0.59799,1.53412 -3.61812,4.8766 -3.61812,4.8766 l -91.108814,-0.34859 c 0,0 -1.246923,0.23704 -1.265579,-1.34599 -0.02301,-1.95258 1.571291,-2.09146 1.571291,-2.09146 l 14.783668,-0.0822 c 0,0 -10.432034,-5.94069 -13.085488,-12.58475 -1.051814,-2.63367 -3.218516,-6.65188 -3.889901,-12.3884 -0.618302,-5.28295 -0.132292,-20.31773 -0.132292,-20.31773 0,0 1.468276,-9.51107 5.977757,-15.88824 2.205077,-3.11836 5.40187,-5.196 8.337392,-7.78681 2.535487,-2.23775 7.550898,-3.77542 7.550898,-3.77542 z"
       id="path1"
       sodipodi:nodetypes="cscsscscssscscscscsssccsccsscsscc"
       sodipodi:insensitive="true" /><path
       style="display:inline;opacity:1;fill:#ffffff;stroke:#000000;stroke-width:3;stroke-dasharray:none;stroke-opacity:1;paint-order:fill markers stroke"
       d="m 113.12548,181.75715 h 21.13454 c 0,0 5.78616,-8.65384 6.22913,-12.34703 0.46606,-3.88561 -0.1831,-8.41151 -2.33592,-11.67962 -2.09324,-3.17767 -6.84843,-7.64791 -10.56727,-8.45382 -3.62841,-0.78632 -10.01111,2.00222 -10.01111,2.00222 0,0 2.74346,8.56083 3.44827,12.5695 0.54787,3.11604 -0.29525,6.49344 -1.66852,9.34369 -1.24298,2.57985 -6.22912,8.56506 -6.22912,8.56506 z"
       id="path3"
       sodipodi:nodetypes="ccssscssc"
       sodipodi:insensitive="true" /><ellipse
       style="display:inline;fill:#000000;stroke:none;stroke-width:4.38149;stroke-dasharray:none;stroke-opacity:1;paint-order:fill markers stroke"
       id="path4"
       cx="79.810745"
       cy="125.97305"
       rx="4.616231"
       ry="4.3937626"
       inkscape:label="Ojo izquierdo"
       sodipodi:insensitive="true" /><ellipse
       style="display:inline;fill:#000000;stroke:none;stroke-width:4.38149;stroke-dasharray:none;stroke-opacity:1;paint-order:fill markers stroke"
       id="path4-3"
       cx="103.09013"
       cy="125.75649"
       rx="4.616231"
       ry="4.3937626"
       inkscape:label="Ojo derecho"
       sodipodi:insensitive="true" /><ellipse
       style="display:inline;fill:#ffffff;stroke:none;stroke-width:1.32539;stroke-dasharray:none;stroke-opacity:1;paint-order:fill markers stroke"
       id="path4-3-2"
       cx="101.62379"
       cy="124.93573"
       rx="1.3348136"
       ry="1.3904314"
       inkscape:label="Blanco derecho"
       sodipodi:insensitive="true" /><ellipse
       style="display:inline;fill:#ffffff;stroke:none;stroke-width:1.32539;stroke-dasharray:none;stroke-opacity:1;paint-order:fill markers stroke"
       id="path4-3-2-9"
       cx="78.352386"
       cy="124.98659"
       rx="1.2412692"
       ry="1.3202732"
       inkscape:label="Blanco Izquierdo"
       sodipodi:insensitive="true" /><path
       style="fill:#000000;stroke:none;stroke-width:3;stroke-dasharray:none;stroke-opacity:1;paint-order:fill markers stroke"
       d="m 86.816405,130.57188 8.632031,-5e-5 c 0,0 1.387289,1.01583 1.422136,3.67109 0.01843,1.4041 -0.743471,2.9184 -1.852084,4.13411 -0.970015,1.06373 -2.532501,1.3772 -3.770312,1.45522 -1.35111,0.0852 -3.04322,-0.40916 -4.53099,-2.4474 -0.674211,-0.92367 -1.027194,-1.6033 -1.02526,-3.37344 0.0025,-2.26673 1.124479,-3.43953 1.124479,-3.43953 z"
       id="path5"
       sodipodi:nodetypes="ccsssssc"
       sodipodi:insensitive="true" /><ellipse
       style="fill:#cccccc;stroke:none;stroke-width:3.55412;stroke-dasharray:none;stroke-opacity:1;paint-order:fill markers stroke"
       id="path6"
       cx="78.517509"
       cy="134.32495"
       rx="2.4961915"
       ry="2.4354768"
       sodipodi:insensitive="true" /><ellipse
       style="fill:#cccccc;stroke:none;stroke-width:3.55412;stroke-dasharray:none;stroke-opacity:1;paint-order:fill markers stroke"
       id="path6-1"
       cx="103.73672"
       cy="134.07095"
       rx="2.4961915"
       ry="2.4354768"
       sodipodi:insensitive="true" /><path
       style="fill:none;stroke:#000000;stroke-width:4;stroke-linecap:round;stroke-dasharray:none;stroke-opacity:1;paint-order:normal"
       d="m 97.035932,153.59062 c 0,0 12.741958,-6.1747 16.139588,-12.83229 3.38816,-6.63902 4.14831,-15.50355 1.58749,-20.37292 -3.71155,-7.05748 -5.60614,-9.9573 -12.83228,-14.41979 -4.320616,-2.66818 -9.156698,-2.46879 -12.328342,-2.25698 -2.992271,0.19982 -9.147802,1.16097 -11.748743,2.65386 -6.135672,3.52175 -10.557242,6.89945 -14.02681,13.06478 -2.865912,5.09264 -5.09619,11.99063 -5.420065,17.82533 -0.291852,5.25779 -0.755496,4.03246 0.358128,14.39158 0.475743,4.42543 0.974466,6.12753 2.68458,7.99878 1.100691,1.2044 5.097378,2.64887 6.680729,3.04271 2.926313,0.72788 9.194271,1.15754 9.194271,1.15754"
       id="path7"
       sodipodi:nodetypes="cssssssssssc"
       sodipodi:insensitive="true" /><path
       style="fill:none;stroke:#000000;stroke-width:4;stroke-linecap:round;stroke-dasharray:none;stroke-opacity:1;paint-order:normal"
       d="m 61.118749,159.67604 c 1.497385,0.99826 7.430822,11.26976 13.229167,15.21354 5.236362,3.56154 12.030186,3.46609 18.388541,2.77812 2.43507,-0.26347 8.112133,-2.44863 9.789583,-4.23332 2.64785,-2.81713 3.70417,-5.95313 3.70417,-5.95313"
       id="path12"
       sodipodi:nodetypes="csssc"
       sodipodi:insensitive="true" /><path
       style="fill:none;stroke:#000000;stroke-width:5;stroke-linecap:round;stroke-dasharray:none;stroke-opacity:1;paint-order:normal"
       d="m 65.106857,142.93574 4.303039,0.56127"
       id="path13"
       sodipodi:nodetypes="cc" /></g></svg>
